{
  "accessors": [
    {
      "bufferView": 2,
      "componentType": 5126,
      "count": 6738,
      "max": [
        2.8856201171875,
        3.27197003364563,
        1.8272500038146973
      ],
      "min": [
        -2.8856201171875,
        -0.8833400011062622,
        -0.20535999536514282
      ],
      "type": "VEC3"
    },
    {
      "bufferView": 2,
      "byteOffset": 80856,
      "componentType": 5126,
      "count": 6738,
      "max": [
        1.0,
        1.0,
        1.0
      ],
      "min": [
        -1.0,
        -1.0,
        -1.0
      ],
      "type": "VEC3"
    },
    {
      "bufferView": 3,
      "componentType": 5126,
      "count": 6738,
      "max": [
        1.0,
        1.0,
        1.0,
        1.0
      ],
      "min": [
        -1.0,
        -1.0,
        -1.0,
        -1.0
      ],
      "type": "VEC4"
    },
    {
      "bufferView": 1,
      "componentType": 5126,
      "count": 6738,
      "max": [
        0.9994900226593018,
        0.9940699934959412
      ],
      "min": [
        -0.9920700192451477,
        0.0069599999114871025
      ],
      "type": "VEC2"
    },
    {
      "bufferView": 0,
      "componentType": 5125,
      "count": 23358,
      "type": "SCALAR"
    }
  ],
  "asset": {
    "extras": {
      "author": "NOva (https://sketchfab.com/n0va)",
      "license": "CC-BY-4.0 (http://creativecommons.org/licenses/by/4.0/)",
      "source": "https://sketchfab.com/3d-models/aeroplane-74eec0bc379745cbba36a299bc578735",
      "title": "AeroPlane"
    },
    "generator": "Sketchfab-12.66.0",
    "version": "2.0"
  },
  "bufferViews": [
    {
      "buffer": 0,
      "byteLength": 93432,
      "name": "floatBufferViews",
      "target": 34963
    },
    {
      "buffer": 0,
      "byteLength": 53904,
      "byteOffset": 93432,
      "byteStride": 8,
      "name": "floatBufferViews",
      "target": 34962
    },
    {
      "buffer": 0,
      "byteLength": 161712,
      "byteOffset": 147336,
      "byteStride": 12,
      "name": "floatBufferViews",
      "target": 34962
    },
    {
      "buffer": 0,
      "byteLength": 107808,
      "byteOffset": 309048,
      "byteStride": 16,
      "name": "floatBufferViews",
      "target": 34962
    }
  ],
  "buffers": [
    {
      "byteLength": 416856,
      "uri": "scene.bin"
    }
  ],
  "images": [
    {
      "uri": "textures/CyclesBake_baseColor.png"
    },
    {
      "uri": "textures/CyclesBake_metallicRoughness.png"
    },
    {
      "uri": "textures/CyclesBake_normal.png"
    }
  ],
  "materials": [
    {
      "name": "CyclesBake",
      "normalTexture": {
        "index": 2
      },
      "pbrMetallicRoughness": {
        "baseColorTexture": {
          "index": 0
        },
        "metallicRoughnessTexture": {
          "index": 1
        }
      }
    }
  ],
  "meshes": [
    {
      "name": "01_AeroPlane_Low_0",
      "primitives": [
        {
          "attributes": {
            "NORMAL": 1,
            "POSITION": 0,
            "TANGENT": 2,
            "TEXCOORD_0": 3
          },
          "indices": 4,
          "material": 0,
          "mode": 4
        }
      ]
    }
  ],
  "nodes": [
    {
      "children": [
        1
      ],
      "matrix": [
        1.0,
        0.0,
        0.0,
        0.0,
        0.0,
        2.220446049250313e-16,
        -1.0,
        0.0,
        0.0,
        1.0,
        2.220446049250313e-16,
        0.0,
        0.0,
        0.0,
        0.0,
        1.0
      ],
      "name": "Sketchfab_model"
    },
    {
      "children": [
        2,
        4
      ],
      "name": "Root"
    },
    {
      "children": [
        3
      ],
      "matrix": [
        1.0,
        0.0,
        0.0,
        0.0,
        0.0,
        0.9644900000000001,
        -0.26413,
        0.0,
        -0.0,
        0.26413,
        0.9644900000000001,
        0.0,
        0.0,
        -1.9595999999999998,
        0.19599000000000005,
        1.0
      ],
      "name": "01_AeroPlane_Low"
    },
    {
      "mesh": 0,
      "name": "01_AeroPlane_Low_0"
    },
    {
      "children": [
        5
      ],
      "matrix": [
        -0.29086000000000006,
        0.9551700000000001,
        -0.05519000000000001,
        0.0,
        -0.7711,
        -0.19988000000000003,
        0.6045200000000001,
        0.0,
        0.5663900000000001,
        0.21839000000000003,
        0.7946700000000001,
        0.0,
        4.076250000000001,
        1.00545,
        5.903860000000001,
        1.0
      ],
      "name": "Lamp"
    },
    {
      "name": "Lamp"
    }
  ],
  "samplers": [
    {
      "magFilter": 9729,
      "minFilter": 9987,
      "wrapS": 10497,
      "wrapT": 10497
    }
  ],
  "scene": 0,
  "scenes": [
    {
      "name": "Sketchfab_Scene",
      "nodes": [
        0
      ]
    }
  ],
  "textures": [
    {
      "sampler": 0,
      "source": 0
    },
    {
      "sampler": 0,
      "source": 1
    },
    {
      "sampler": 0,
      "source": 2
    }
  ]
}
